<svg xmlns="http://www.w3.org/2000/svg" viewBox="0 0 720 520" role="img" aria-labelledby="title desc">
  <title id="title">MedBank study workspace illustration</title>
  <desc id="desc">A calm medical study desk with MCQ cards, notes, and soft MedBank brand colors.</desc>
  <defs>
    <linearGradient id="bg" x1="0" y1="0" x2="1" y2="1"><stop offset="0" stop-color="#f9fffd"/><stop offset="1" stop-color="#edf7f6"/></linearGradient>
    <linearGradient id="card" x1="0" y1="0" x2="1" y2="1"><stop offset="0" stop-color="#ffffff"/><stop offset="1" stop-color="#f3fbfa"/></linearGradient>
    <filter id="shadow" x="-20%" y="-20%" width="140%" height="150%"><feDropShadow dx="0" dy="24" stdDeviation="22" flood-color="#102a43" flood-opacity="0.14"/></filter>
  </defs>
  <rect width="720" height="520" rx="44" fill="url(#bg)"/>
  <circle cx="610" cy="96" r="86" fill="#f4a259" opacity="0.18"/>
  <circle cx="118" cy="420" r="110" fill="#177e89" opacity="0.12"/>
  <g filter="url(#shadow)">
    <rect x="110" y="82" width="500" height="350" rx="34" fill="url(#card)" stroke="#d8ebe9"/>
    <rect x="146" y="122" width="190" height="250" rx="22" fill="#102a43"/>
    <text x="172" y="160" fill="#ffffff" font-family="Inter, Arial" font-size="20" font-weight="700">MCQ Session</text>
    <rect x="172" y="188" width="118" height="10" rx="5" fill="#64d2c8" opacity="0.9"/>
    <rect x="172" y="218" width="130" height="16" rx="8" fill="#ffffff" opacity="0.18"/>
    <rect x="172" y="252" width="96" height="16" rx="8" fill="#ffffff" opacity="0.18"/>
    <rect x="172" y="286" width="124" height="16" rx="8" fill="#ffffff" opacity="0.18"/>
    <circle cx="292" cy="332" r="22" fill="#f4a259"/>
    <path d="M282 332l7 7 16-18" fill="none" stroke="#fff" stroke-width="5" stroke-linecap="round" stroke-linejoin="round"/>
    <rect x="368" y="126" width="178" height="58" rx="18" fill="#ffffff" stroke="#d8ebe9"/>
    <rect x="392" y="148" width="82" height="10" rx="5" fill="#177e89" opacity="0.9"/>
    <rect x="392" y="166" width="118" height="8" rx="4" fill="#b9d9d6"/>
    <rect x="368" y="210" width="178" height="58" rx="18" fill="#ffffff" stroke="#d8ebe9"/>
    <rect x="392" y="232" width="102" height="10" rx="5" fill="#f4a259" opacity="0.9"/>
    <rect x="392" y="250" width="92" height="8" rx="4" fill="#efd4bd"/>
    <rect x="368" y="294" width="178" height="58" rx="18" fill="#ffffff" stroke="#d8ebe9"/>
    <rect x="392" y="316" width="74" height="10" rx="5" fill="#177e89" opacity="0.9"/>
    <rect x="392" y="334" width="126" height="8" rx="4" fill="#b9d9d6"/>
  </g>
</svg>
